<?xml version="1.0" encoding="UTF-8" ?>
<!DOCTYPE svg PUBLIC "-//W3C//DTD SVG 1.1//EN" "http://www.w3.org/Graphics/SVG/1.1/DTD/svg11.dtd">
<svg width="512pt" height="512pt" viewBox="0 0 512 512" version="1.1" xmlns="http://www.w3.org/2000/svg">
<path fill="#2c424f" stroke="#2c424f" stroke-width="0.09375" opacity="1.00" d=" M 164.84 119.74 C 165.28 117.10 168.09 115.41 170.60 116.51 C 211.56 128.37 252.48 140.39 293.46 152.18 C 293.37 153.15 293.39 154.11 293.52 155.08 C 293.55 154.38 293.60 153.00 293.63 152.31 C 334.10 160.88 374.56 169.48 415.03 178.04 C 417.69 178.49 420.54 179.63 421.76 182.22 C 423.53 185.36 421.79 188.84 420.98 191.98 C 404.10 249.33 387.28 306.71 370.42 364.07 C 369.29 367.47 368.93 371.55 365.98 373.99 C 363.90 375.86 360.92 376.34 358.26 375.68 C 347.91 373.37 337.58 370.98 327.23 368.67 C 327.51 366.26 327.79 363.85 328.07 361.45 C 317.27 361.74 306.45 361.78 295.65 361.50 C 306.06 361.04 316.50 361.56 326.92 361.15 C 326.02 360.00 325.14 358.83 324.25 357.69 C 335.96 360.30 347.67 362.93 359.38 365.57 C 373.40 317.94 387.36 270.29 401.44 222.67 C 395.46 210.45 388.99 198.49 382.93 186.31 C 381.94 184.41 380.95 182.50 379.67 180.78 C 352.78 175.09 325.90 169.36 299.01 163.69 C 290.49 162.16 282.28 159.40 273.99 157.00 C 240.30 147.18 206.66 137.22 172.97 127.43 C 168.83 141.35 164.74 155.29 160.72 169.24 C 157.00 170.11 153.26 170.92 149.56 171.89 C 154.63 154.50 159.73 137.12 164.84 119.74 Z" />
<path fill="#ebebec" stroke="#ebebec" stroke-width="0.09375" opacity="1.00" d=" M 172.97 127.43 C 206.66 137.22 240.30 147.18 273.99 157.00 C 282.28 159.40 290.49 162.16 299.01 163.69 C 325.90 169.36 352.78 175.09 379.67 180.78 C 377.04 190.32 374.20 199.79 371.06 209.16 C 370.57 211.28 369.46 213.55 370.08 215.72 C 377.26 218.15 384.83 219.05 392.18 220.84 C 395.23 221.59 398.32 222.22 401.44 222.67 C 387.36 270.29 373.40 317.94 359.38 365.57 C 347.67 362.93 335.96 360.30 324.25 357.69 C 322.05 355.60 319.84 353.54 317.61 351.49 C 310.14 351.26 302.65 351.89 295.21 350.99 C 292.22 346.09 288.25 341.56 287.09 335.77 C 285.51 329.38 287.31 322.44 291.33 317.31 C 293.29 314.94 295.83 313.15 297.80 310.79 C 303.25 304.29 305.71 295.27 303.87 286.93 C 302.48 279.17 297.43 272.32 290.74 268.26 C 281.42 262.78 269.01 262.95 260.06 269.14 C 260.73 266.65 261.51 264.18 261.95 261.63 C 260.79 265.41 260.10 269.67 256.63 272.11 C 247.56 235.05 238.33 198.02 229.20 160.97 C 228.63 156.81 224.45 153.43 220.23 154.64 C 200.36 159.38 180.57 164.42 160.72 169.24 C 164.74 155.29 168.83 141.35 172.97 127.43 M 290.27 163.39 C 289.40 164.64 289.63 165.37 290.95 165.59 C 291.81 164.34 291.58 163.61 290.27 163.39 M 289.17 167.29 C 287.57 170.29 292.52 167.50 289.17 167.29 M 288.53 170.34 C 287.47 171.74 286.64 173.90 287.25 175.63 C 288.80 175.19 289.99 171.23 288.53 170.34 M 286.14 177.33 C 284.58 180.34 289.47 177.50 286.14 177.33 M 285.32 180.38 C 284.38 181.56 284.56 182.30 285.86 182.63 C 286.80 181.45 286.62 180.70 285.32 180.38 M 284.15 184.28 C 282.55 187.27 287.48 184.50 284.15 184.28 M 283.50 187.35 C 282.53 188.83 281.62 190.98 282.28 192.73 C 283.89 192.29 284.89 188.25 283.50 187.35 M 281.17 194.35 C 279.57 197.34 284.51 194.57 281.17 194.35 M 280.32 197.47 C 279.42 198.68 279.62 199.41 280.94 199.66 C 281.84 198.45 281.63 197.72 280.32 197.47 M 279.14 201.26 C 277.53 204.26 282.49 201.48 279.14 201.26 M 278.50 204.32 C 277.54 205.82 276.66 207.97 277.28 209.74 C 278.90 209.27 279.90 205.27 278.50 204.32 M 276.52 211.31 C 275.48 212.75 274.62 214.92 275.27 216.67 C 276.89 216.27 277.82 212.31 276.52 211.31 M 274.13 218.30 C 272.60 221.34 277.47 218.44 274.13 218.30 M 273.27 221.43 C 272.40 222.66 272.62 223.40 273.94 223.64 C 274.80 222.40 274.58 221.67 273.27 221.43 M 318.47 221.53 C 309.50 223.13 301.08 228.91 297.32 237.35 C 293.04 245.94 294.32 257.09 300.72 264.29 C 305.73 269.98 313.43 272.95 320.96 272.45 C 333.15 272.16 344.58 262.91 347.23 250.99 C 349.28 242.47 346.27 232.96 339.68 227.19 C 334.02 222.12 325.88 220.25 318.47 221.53 M 272.14 225.27 C 270.62 228.32 275.49 225.39 272.14 225.27 M 271.52 228.27 C 270.43 229.69 269.59 231.91 270.28 233.66 C 271.77 233.11 272.91 229.18 271.52 228.27 M 269.13 235.32 C 267.60 238.35 272.47 235.46 269.13 235.32 M 268.26 238.43 C 267.39 239.66 267.61 240.40 268.93 240.63 C 269.80 239.39 269.58 238.65 268.26 238.43 M 267.14 242.24 C 265.57 245.26 270.47 242.42 267.14 242.24 M 266.51 245.35 C 265.51 246.80 264.61 248.98 265.28 250.72 C 266.89 250.25 267.86 246.33 266.51 245.35 M 264.18 252.35 C 262.54 255.33 267.52 252.61 264.18 252.35 M 263.55 255.38 C 262.52 256.83 261.69 258.98 262.24 260.74 C 263.79 260.24 265.07 256.25 263.55 255.38 Z" />
<path fill="#0c2c48" stroke="#0c2c48" stroke-width="0.09375" opacity="1.00" d=" M 160.72 169.24 C 180.57 164.42 200.36 159.38 220.23 154.64 C 224.45 153.43 228.63 156.81 229.20 160.97 C 238.33 198.02 247.56 235.05 256.63 272.11 C 244.32 282.57 244.69 303.66 257.05 313.94 C 264.22 319.35 267.46 329.49 264.35 337.99 C 262.60 343.29 258.73 347.44 256.19 352.34 C 248.85 352.52 241.49 351.99 234.17 352.51 C 230.69 354.85 228.09 358.27 225.01 361.09 C 242.41 361.71 259.83 360.98 277.23 361.51 C 259.55 361.73 241.84 361.86 224.16 361.40 C 224.64 366.39 225.12 371.39 225.74 376.37 C 201.83 382.26 177.93 388.17 154.03 394.06 C 151.02 394.76 148.06 395.75 144.97 396.03 C 141.57 396.02 138.56 393.35 137.92 390.05 C 131.58 364.61 125.45 339.11 119.07 313.68 C 117.56 307.07 115.93 300.49 114.05 293.98 C 113.02 288.23 111.43 282.61 110.09 276.93 C 103.45 250.00 96.86 223.05 90.20 196.12 C 89.52 193.64 89.10 190.77 90.73 188.54 C 92.67 185.34 96.71 185.07 99.97 184.19 C 116.50 180.10 133.06 176.12 149.56 171.89 C 153.26 170.92 157.00 170.11 160.72 169.24 M 121.10 204.49 C 121.48 206.05 121.85 207.61 122.23 209.17 C 150.44 202.24 178.63 195.21 206.86 188.33 C 206.51 186.76 206.16 185.19 205.82 183.62 C 177.57 190.54 149.35 197.56 121.10 204.49 M 127.44 230.45 C 127.85 231.94 128.25 233.44 128.65 234.95 C 156.88 228.03 185.08 221.03 213.29 214.08 C 212.91 212.53 212.55 210.99 212.18 209.45 C 183.92 216.41 155.62 223.22 127.44 230.45 M 179.54 245.71 C 162.88 248.49 148.34 261.12 143.57 277.37 C 139.59 289.27 141.19 302.74 147.35 313.62 C 154.33 326.29 167.60 335.25 181.97 336.99 C 195.50 338.78 209.68 333.98 219.45 324.47 C 229.86 314.48 235.29 299.46 233.29 285.13 C 231.61 271.15 222.88 258.34 210.69 251.35 C 201.41 245.88 190.16 243.79 179.54 245.71 Z" />
<path fill="#b9c0c4" stroke="#b9c0c4" stroke-width="0.09375" opacity="1.00" d=" M 290.27 163.39 C 291.58 163.61 291.81 164.34 290.95 165.59 C 289.63 165.37 289.40 164.64 290.27 163.39 Z" />
<path fill="#b9c0c4" stroke="#b9c0c4" stroke-width="0.09375" opacity="1.00" d=" M 289.17 167.29 C 292.52 167.50 287.57 170.29 289.17 167.29 Z" />
<path fill="#b9c0c4" stroke="#b9c0c4" stroke-width="0.09375" opacity="1.00" d=" M 288.53 170.34 C 289.99 171.23 288.80 175.19 287.25 175.63 C 286.64 173.90 287.47 171.74 288.53 170.34 Z" />
<path fill="#b9c0c4" stroke="#b9c0c4" stroke-width="0.09375" opacity="1.00" d=" M 286.14 177.33 C 289.47 177.50 284.58 180.34 286.14 177.33 Z" />
<path fill="#b9c0c4" stroke="#b9c0c4" stroke-width="0.09375" opacity="1.00" d=" M 285.32 180.38 C 286.62 180.70 286.80 181.45 285.86 182.63 C 284.56 182.30 284.38 181.56 285.32 180.38 Z" />
<path fill="#b9c0c4" stroke="#b9c0c4" stroke-width="0.09375" opacity="1.00" d=" M 379.67 180.78 C 380.95 182.50 381.94 184.41 382.93 186.31 C 388.99 198.49 395.46 210.45 401.44 222.67 C 398.32 222.22 395.23 221.59 392.18 220.84 C 384.83 219.05 377.26 218.15 370.08 215.72 C 369.46 213.55 370.57 211.28 371.06 209.16 C 374.20 199.79 377.04 190.32 379.67 180.78 Z" />
<path fill="#b9c0c4" stroke="#b9c0c4" stroke-width="0.09375" opacity="1.00" d=" M 121.10 204.49 C 149.35 197.56 177.57 190.54 205.82 183.62 C 206.16 185.19 206.51 186.76 206.86 188.33 C 178.63 195.21 150.44 202.24 122.23 209.17 C 121.85 207.61 121.48 206.05 121.10 204.49 Z" />
<path fill="#b9c0c4" stroke="#b9c0c4" stroke-width="0.09375" opacity="1.00" d=" M 284.15 184.28 C 287.48 184.50 282.55 187.27 284.15 184.28 Z" />
<path fill="#b9c0c4" stroke="#b9c0c4" stroke-width="0.09375" opacity="1.00" d=" M 283.50 187.35 C 284.89 188.25 283.89 192.29 282.28 192.73 C 281.62 190.98 282.53 188.83 283.50 187.35 Z" />
<path fill="#b9c0c4" stroke="#b9c0c4" stroke-width="0.09375" opacity="1.00" d=" M 281.17 194.35 C 284.51 194.57 279.57 197.34 281.17 194.35 Z" />
<path fill="#b9c0c4" stroke="#b9c0c4" stroke-width="0.09375" opacity="1.00" d=" M 280.32 197.47 C 281.63 197.72 281.84 198.45 280.94 199.66 C 279.62 199.41 279.42 198.68 280.32 197.47 Z" />
<path fill="#b9c0c4" stroke="#b9c0c4" stroke-width="0.09375" opacity="1.00" d=" M 279.14 201.26 C 282.49 201.48 277.53 204.26 279.14 201.26 Z" />
<path fill="#b9c0c4" stroke="#b9c0c4" stroke-width="0.09375" opacity="1.00" d=" M 278.50 204.32 C 279.90 205.27 278.90 209.27 277.28 209.74 C 276.66 207.97 277.54 205.82 278.50 204.32 Z" />
<path fill="#b9c0c4" stroke="#b9c0c4" stroke-width="0.09375" opacity="1.00" d=" M 127.44 230.45 C 155.62 223.22 183.92 216.41 212.18 209.45 C 212.55 210.99 212.91 212.53 213.29 214.08 C 185.08 221.03 156.88 228.03 128.65 234.95 C 128.25 233.44 127.85 231.94 127.44 230.45 Z" />
<path fill="#b9c0c4" stroke="#b9c0c4" stroke-width="0.09375" opacity="1.00" d=" M 276.52 211.31 C 277.82 212.31 276.89 216.27 275.27 216.67 C 274.62 214.92 275.48 212.75 276.52 211.31 Z" />
<path fill="#b9c0c4" stroke="#b9c0c4" stroke-width="0.09375" opacity="1.00" d=" M 274.13 218.30 C 277.47 218.44 272.60 221.34 274.13 218.30 Z" />
<path fill="#b9c0c4" stroke="#b9c0c4" stroke-width="0.09375" opacity="1.00" d=" M 273.27 221.43 C 274.58 221.67 274.80 222.40 273.94 223.64 C 272.62 223.40 272.40 222.66 273.27 221.43 Z" />
<path fill="#f1746e" stroke="#f1746e" stroke-width="0.09375" opacity="1.00" d=" M 318.47 221.53 C 325.88 220.25 334.02 222.12 339.68 227.19 C 346.27 232.96 349.28 242.47 347.23 250.99 C 344.58 262.91 333.15 272.16 320.96 272.45 C 313.43 272.95 305.73 269.98 300.72 264.29 C 294.32 257.09 293.04 245.94 297.32 237.35 C 301.08 228.91 309.50 223.13 318.47 221.53 M 317.39 223.55 C 305.03 226.00 295.29 238.15 296.71 250.87 C 297.46 259.82 304.39 267.58 313.03 269.80 C 327.87 274.56 345.05 262.44 346.00 247.00 C 346.77 238.66 342.29 230.09 334.94 226.06 C 329.70 222.95 323.28 222.26 317.39 223.55 Z" />
<path fill="#ebebec" stroke="#ebebec" stroke-width="0.09375" opacity="1.00" d=" M 317.39 223.55 C 323.28 222.26 329.70 222.95 334.94 226.06 C 342.29 230.09 346.77 238.66 346.00 247.00 C 345.05 262.44 327.87 274.56 313.03 269.80 C 304.39 267.58 297.46 259.82 296.71 250.87 C 295.29 238.15 305.03 226.00 317.39 223.55 M 316.86 230.89 C 316.95 231.34 317.13 232.24 317.22 232.69 C 324.51 236.79 331.77 241.14 339.47 244.43 C 339.12 241.92 336.50 241.30 334.67 240.18 C 328.68 237.18 323.03 233.51 316.86 230.89 M 305.46 236.27 C 306.14 238.34 308.22 239.14 309.92 240.13 C 319.74 245.40 329.38 251.00 339.26 256.15 C 339.92 254.06 337.80 253.45 336.43 252.59 C 328.03 248.00 319.65 243.39 311.29 238.72 C 309.46 237.66 307.49 236.85 305.46 236.27 M 306.49 246.66 C 307.32 249.14 309.95 249.92 312.00 251.11 C 317.82 254.07 323.30 257.69 329.29 260.33 C 329.17 259.84 328.93 258.87 328.82 258.38 C 325.32 255.99 321.38 254.33 317.75 252.17 C 314.03 250.27 310.61 247.65 306.49 246.66 Z" />
<path fill="#b9c0c4" stroke="#b9c0c4" stroke-width="0.09375" opacity="1.00" d=" M 272.14 225.27 C 275.49 225.39 270.62 228.32 272.14 225.27 Z" />
<path fill="#b9c0c4" stroke="#b9c0c4" stroke-width="0.09375" opacity="1.00" d=" M 271.52 228.27 C 272.91 229.18 271.77 233.11 270.28 233.66 C 269.59 231.91 270.43 229.69 271.52 228.27 Z" />
<path fill="#f1746e" stroke="#f1746e" stroke-width="0.09375" opacity="1.00" d=" M 316.86 230.89 C 323.03 233.51 328.68 237.18 334.67 240.18 C 336.50 241.30 339.12 241.92 339.47 244.43 C 331.77 241.14 324.51 236.79 317.22 232.69 C 317.13 232.24 316.95 231.34 316.86 230.89 Z" />
<path fill="#b9c0c4" stroke="#b9c0c4" stroke-width="0.09375" opacity="1.00" d=" M 269.13 235.32 C 272.47 235.46 267.60 238.35 269.13 235.32 Z" />
<path fill="#f1746e" stroke="#f1746e" stroke-width="0.09375" opacity="1.00" d=" M 305.46 236.27 C 307.49 236.85 309.46 237.66 311.29 238.72 C 319.65 243.39 328.03 248.00 336.43 252.59 C 337.80 253.45 339.92 254.06 339.26 256.15 C 329.38 251.00 319.74 245.40 309.92 240.13 C 308.22 239.14 306.14 238.34 305.46 236.27 Z" />
<path fill="#b9c0c4" stroke="#b9c0c4" stroke-width="0.09375" opacity="1.00" d=" M 268.26 238.43 C 269.58 238.65 269.80 239.39 268.93 240.63 C 267.61 240.40 267.39 239.66 268.26 238.43 Z" />
<path fill="#b9c0c4" stroke="#b9c0c4" stroke-width="0.09375" opacity="1.00" d=" M 267.14 242.24 C 270.47 242.42 265.57 245.26 267.14 242.24 Z" />
<path fill="#b9c0c4" stroke="#b9c0c4" stroke-width="0.09375" opacity="1.00" d=" M 179.54 245.71 C 190.16 243.79 201.41 245.88 210.69 251.35 C 222.88 258.34 231.61 271.15 233.29 285.13 C 235.29 299.46 229.86 314.48 219.45 324.47 C 209.68 333.98 195.50 338.78 181.97 336.99 C 167.60 335.25 154.33 326.29 147.35 313.62 C 141.19 302.74 139.59 289.27 143.57 277.37 C 148.34 261.12 162.88 248.49 179.54 245.71 M 191.78 248.98 C 196.11 252.17 200.25 255.67 203.36 260.12 C 206.68 259.42 209.98 258.63 213.27 257.78 C 207.17 252.78 199.53 250.02 191.78 248.98 M 179.24 249.57 C 180.35 254.87 181.71 260.12 183.01 265.37 C 188.43 264.07 193.85 262.76 199.28 261.51 C 194.92 254.82 187.50 249.44 179.24 249.57 M 162.75 270.15 C 168.24 268.90 173.70 267.54 179.16 266.17 C 177.94 260.91 176.64 255.67 175.30 250.45 C 167.80 254.14 164.29 262.38 162.75 270.15 M 148.93 273.55 C 152.27 272.81 155.59 272.01 158.91 271.19 C 159.72 265.78 161.57 260.62 164.09 255.78 C 157.55 260.21 152.24 266.38 148.93 273.55 M 205.70 263.70 C 209.26 269.56 211.95 275.92 213.78 282.52 C 218.53 281.41 223.29 280.31 227.91 278.76 C 225.64 272.04 221.83 265.97 216.98 260.82 C 213.19 261.67 209.41 262.57 205.70 263.70 M 184.02 269.01 C 185.53 275.59 187.27 282.12 188.71 288.71 C 195.91 287.22 202.99 285.23 210.16 283.61 C 208.32 277.03 205.73 270.58 201.92 264.88 C 195.87 265.62 189.99 267.70 184.02 269.01 M 162.15 274.38 C 161.52 281.27 162.22 288.19 163.50 294.97 C 170.69 293.35 177.82 291.49 185.00 289.79 C 183.37 283.20 181.82 276.59 180.17 270.01 C 174.17 271.48 168.15 272.91 162.15 274.38 M 147.09 278.04 C 145.03 284.95 144.64 292.29 145.94 299.38 C 150.61 298.27 155.28 297.13 159.94 296.00 C 158.49 289.17 158.06 282.18 158.32 275.22 C 154.57 276.14 150.83 277.08 147.09 278.04 M 214.89 286.34 C 216.21 293.12 216.81 300.05 216.42 306.96 C 220.21 306.03 224.01 305.13 227.77 304.06 C 229.74 297.22 230.11 290.01 228.86 283.01 C 224.20 284.11 219.55 285.27 214.89 286.34 M 189.90 292.32 C 191.22 298.93 193.08 305.43 194.48 312.03 C 200.61 310.91 206.59 309.17 212.66 307.78 C 213.20 300.91 212.54 294.04 211.35 287.27 C 204.15 288.73 197.08 290.75 189.90 292.32 M 164.56 298.63 C 166.50 305.26 169.02 311.76 172.76 317.60 C 178.73 316.14 184.70 314.65 190.69 313.28 C 189.41 306.62 187.44 300.11 186.10 293.47 C 178.88 295.02 171.73 296.89 164.56 298.63 M 146.95 303.22 C 149.16 310.05 152.99 316.25 157.93 321.44 C 161.64 320.47 165.35 319.52 169.08 318.66 C 165.67 312.64 162.76 306.32 161.01 299.61 C 156.31 300.76 151.63 302.01 146.95 303.22 M 215.88 311.00 C 215.08 316.35 213.22 321.44 210.82 326.28 C 217.38 321.99 222.54 315.75 225.79 308.64 C 222.47 309.37 219.17 310.18 215.88 311.00 M 195.64 315.99 C 196.77 321.22 198.20 326.38 199.33 331.62 C 207.09 328.27 210.40 319.71 212.05 312.01 C 206.56 313.25 201.12 314.69 195.64 315.99 M 175.15 320.84 C 180.19 327.05 187.08 332.89 195.57 332.60 C 194.44 327.31 193.05 322.07 191.79 316.81 C 186.24 318.15 180.68 319.41 175.15 320.84 M 161.39 324.41 C 167.61 329.36 175.27 332.32 183.16 333.11 C 178.63 330.19 174.60 326.51 171.49 322.10 C 168.09 322.73 164.74 323.57 161.39 324.41 Z" />
<path fill="#b9c0c4" stroke="#b9c0c4" stroke-width="0.09375" opacity="1.00" d=" M 266.51 245.35 C 267.86 246.33 266.89 250.25 265.28 250.72 C 264.61 248.98 265.51 246.80 266.51 245.35 Z" />
<path fill="#f1746e" stroke="#f1746e" stroke-width="0.09375" opacity="1.00" d=" M 306.49 246.66 C 310.61 247.65 314.03 250.27 317.75 252.17 C 321.38 254.33 325.32 255.99 328.82 258.38 C 328.93 258.87 329.17 259.84 329.29 260.33 C 323.30 257.69 317.82 254.07 312.00 251.11 C 309.95 249.92 307.32 249.14 306.49 246.66 Z" />
<path fill="#0c2c48" stroke="#0c2c48" stroke-width="0.09375" opacity="1.00" d=" M 191.78 248.98 C 199.53 250.02 207.17 252.78 213.27 257.78 C 209.98 258.63 206.68 259.42 203.36 260.12 C 200.25 255.67 196.11 252.17 191.78 248.98 Z" />
<path fill="#0c2c48" stroke="#0c2c48" stroke-width="0.09375" opacity="1.00" d=" M 179.24 249.57 C 187.50 249.44 194.92 254.82 199.28 261.51 C 193.85 262.76 188.43 264.07 183.01 265.37 C 181.71 260.12 180.35 254.87 179.24 249.57 Z" />
<path fill="#0c2c48" stroke="#0c2c48" stroke-width="0.09375" opacity="1.00" d=" M 162.75 270.15 C 164.29 262.38 167.80 254.14 175.30 250.45 C 176.64 255.67 177.94 260.91 179.16 266.17 C 173.70 267.54 168.24 268.90 162.75 270.15 Z" />
<path fill="#b9c0c4" stroke="#b9c0c4" stroke-width="0.09375" opacity="1.00" d=" M 264.18 252.35 C 267.52 252.61 262.54 255.33 264.18 252.35 Z" />
<path fill="#b9c0c4" stroke="#b9c0c4" stroke-width="0.09375" opacity="1.00" d=" M 263.55 255.38 C 265.07 256.25 263.79 260.24 262.24 260.74 C 261.69 258.98 262.52 256.83 263.55 255.38 Z" />
<path fill="#0c2c48" stroke="#0c2c48" stroke-width="0.09375" opacity="1.00" d=" M 148.93 273.55 C 152.24 266.38 157.55 260.21 164.09 255.78 C 161.57 260.62 159.72 265.78 158.91 271.19 C 155.59 272.01 152.27 272.81 148.93 273.55 Z" />
<path fill="#0c2c48" stroke="#0c2c48" stroke-width="0.09375" opacity="1.00" d=" M 205.70 263.70 C 209.41 262.57 213.19 261.67 216.98 260.82 C 221.83 265.97 225.64 272.04 227.91 278.76 C 223.29 280.31 218.53 281.41 213.78 282.52 C 211.95 275.92 209.26 269.56 205.70 263.70 Z" />
<path fill="#d55644" stroke="#d55644" stroke-width="0.09375" opacity="1.00" d=" M 256.63 272.11 C 260.10 269.67 260.79 265.41 261.95 261.63 C 261.51 264.18 260.73 266.65 260.06 269.14 C 269.01 262.95 281.42 262.78 290.74 268.26 C 297.43 272.32 302.48 279.17 303.87 286.93 C 305.71 295.27 303.25 304.29 297.80 310.79 C 295.83 313.15 293.29 314.94 291.33 317.31 C 287.31 322.44 285.51 329.38 287.09 335.77 C 288.25 341.56 292.22 346.09 295.21 350.99 C 302.65 351.89 310.14 351.26 317.61 351.49 C 319.84 353.54 322.05 355.60 324.25 357.69 C 325.14 358.83 326.02 360.00 326.92 361.15 C 316.50 361.56 306.06 361.04 295.65 361.50 C 306.45 361.78 317.27 361.74 328.07 361.45 C 327.79 363.85 327.51 366.26 327.23 368.67 C 326.46 374.69 325.78 380.71 324.93 386.72 C 292.31 386.87 259.70 386.80 227.08 386.74 C 226.53 383.29 226.14 379.83 225.74 376.37 C 225.12 371.39 224.64 366.39 224.16 361.40 C 241.84 361.86 259.55 361.73 277.23 361.51 C 259.83 360.98 242.41 361.71 225.01 361.09 C 228.09 358.27 230.69 354.85 234.17 352.51 C 241.49 351.99 248.85 352.52 256.19 352.34 C 258.73 347.44 262.60 343.29 264.35 337.99 C 267.46 329.49 264.22 319.35 257.05 313.94 C 244.69 303.66 244.32 282.57 256.63 272.11 Z" />
<path fill="#0c2c48" stroke="#0c2c48" stroke-width="0.09375" opacity="1.00" d=" M 184.02 269.01 C 189.99 267.70 195.87 265.62 201.92 264.88 C 205.73 270.58 208.32 277.03 210.16 283.61 C 202.99 285.23 195.91 287.22 188.71 288.71 C 187.27 282.12 185.53 275.59 184.02 269.01 Z" />
<path fill="#0c2c48" stroke="#0c2c48" stroke-width="0.09375" opacity="1.00" d=" M 162.15 274.38 C 168.15 272.91 174.17 271.48 180.17 270.01 C 181.82 276.59 183.37 283.20 185.00 289.79 C 177.82 291.49 170.69 293.35 163.50 294.97 C 162.22 288.19 161.52 281.27 162.15 274.38 Z" />
<path fill="#0c2c48" stroke="#0c2c48" stroke-width="0.09375" opacity="1.00" d=" M 147.09 278.04 C 150.83 277.08 154.57 276.14 158.32 275.22 C 158.06 282.18 158.49 289.17 159.94 296.00 C 155.28 297.13 150.61 298.27 145.94 299.38 C 144.64 292.29 145.03 284.95 147.09 278.04 Z" />
<path fill="#0c2c48" stroke="#0c2c48" stroke-width="0.09375" opacity="1.00" d=" M 214.89 286.34 C 219.55 285.27 224.20 284.11 228.86 283.01 C 230.11 290.01 229.74 297.22 227.77 304.06 C 224.01 305.13 220.21 306.03 216.42 306.96 C 216.81 300.05 216.21 293.12 214.89 286.34 Z" />
<path fill="#0c2c48" stroke="#0c2c48" stroke-width="0.09375" opacity="1.00" d=" M 189.90 292.32 C 197.08 290.75 204.15 288.73 211.35 287.27 C 212.54 294.04 213.20 300.91 212.66 307.78 C 206.59 309.17 200.61 310.91 194.48 312.03 C 193.08 305.43 191.22 298.93 189.90 292.32 Z" />
<path fill="#0c2c48" stroke="#0c2c48" stroke-width="0.09375" opacity="1.00" d=" M 164.56 298.63 C 171.73 296.89 178.88 295.02 186.10 293.47 C 187.44 300.11 189.41 306.62 190.69 313.28 C 184.70 314.65 178.73 316.14 172.76 317.60 C 169.02 311.76 166.50 305.26 164.56 298.63 Z" />
<path fill="#2c424f" stroke="#2c424f" stroke-width="0.09375" opacity="1.00" d=" M 114.05 293.98 C 115.93 300.49 117.56 307.07 119.07 313.68 C 115.90 312.61 111.12 312.76 109.78 309.03 C 110.42 303.86 112.30 298.87 114.05 293.98 Z" />
<path fill="#0c2c48" stroke="#0c2c48" stroke-width="0.09375" opacity="1.00" d=" M 146.95 303.22 C 151.63 302.01 156.31 300.76 161.01 299.61 C 162.76 306.32 165.67 312.64 169.08 318.66 C 165.35 319.52 161.64 320.47 157.93 321.44 C 152.99 316.25 149.16 310.05 146.95 303.22 Z" />
<path fill="#0c2c48" stroke="#0c2c48" stroke-width="0.09375" opacity="1.00" d=" M 215.88 311.00 C 219.17 310.18 222.47 309.37 225.79 308.64 C 222.54 315.75 217.38 321.99 210.82 326.28 C 213.22 321.44 215.08 316.35 215.88 311.00 Z" />
<path fill="#0c2c48" stroke="#0c2c48" stroke-width="0.09375" opacity="1.00" d=" M 195.64 315.99 C 201.12 314.69 206.56 313.25 212.05 312.01 C 210.40 319.71 207.09 328.27 199.33 331.62 C 198.20 326.38 196.77 321.22 195.64 315.99 Z" />
<path fill="#0c2c48" stroke="#0c2c48" stroke-width="0.09375" opacity="1.00" d=" M 175.15 320.84 C 180.68 319.41 186.24 318.15 191.79 316.81 C 193.05 322.07 194.44 327.31 195.57 332.60 C 187.08 332.89 180.19 327.05 175.15 320.84 Z" />
<path fill="#0c2c48" stroke="#0c2c48" stroke-width="0.09375" opacity="1.00" d=" M 161.39 324.41 C 164.74 323.57 168.09 322.73 171.49 322.10 C 174.60 326.51 178.63 330.19 183.16 333.11 C 175.27 332.32 167.61 329.36 161.39 324.41 Z" />
</svg>
